<?xml version='1.0' encoding='utf-8'?>
<!DOCTYPE svg PUBLIC '-//W3C//DTD SVG 1.1//EN' 'http://www.w3.org/Graphics/SVG/1.1/DTD/svg11.dtd'>
<!-- Uploaded to: SVG Repo, www.svgrepo.com, Generator: SVG Repo Mixer Tools -->
<svg fill="#000000" height="800px" width="800px" version="1.1" xmlns="http://www.w3.org/2000/svg" viewBox="0 0 512 512" xmlns:xlink="http://www.w3.org/1999/xlink" enable-background="new 0 0 512 512">
  <g>
    <g>
      <path d="m480.6,181.1h-21.1c-8.9-84.2-71.8-149.7-147.9-149.7-76.1,0-139,65.5-147.9,149.7h-21.1c-11.3,0-20.4,9.1-20.4,20.4v52.4l-82.9-34c-7.3-3.6-27.2-1.9-28.3,18.9v184.1c-0.9,8.5 9.8,25.8 28.2,18.9l82.9-34v52.4c0,11.3 9.1,20.4 20.4,20.4h338.1c11.3,0 20.4-9.1 20.4-20.4v-258.7c0-11.3-9.1-20.4-20.4-20.4zm-428.8,211.4v-123.3l70.3,28.8v65.7l-70.3,28.8zm259.7-320.2c53.8-1.42109e-14 98.6,47.2 106.8,108.8h-213.6c8.3-61.6 53-108.8 106.8-108.8zm148.7,367.5h-297.3v-217.9h297.2v217.9z"/>
    </g>
  </g>
</svg>