<?xml version='1.0' encoding='utf-8'?>
<!DOCTYPE svg PUBLIC '-//W3C//DTD SVG 1.1//EN' 'http://www.w3.org/Graphics/SVG/1.1/DTD/svg11.dtd'>
<!-- Uploaded to: SVG Repo, www.svgrepo.com, Generator: SVG Repo Mixer Tools -->
<svg fill="#000000" height="800px" width="800px" version="1.1" xmlns="http://www.w3.org/2000/svg" viewBox="0 0 512 512" xmlns:xlink="http://www.w3.org/1999/xlink" enable-background="new 0 0 512 512">
  <g>
    <path d="m256,11c-135.1,0-245,113.8-245,253.6 0,61.2 21.4,120.3 60.2,166.5 3.9,4.6 9.6,7.3 15.6,7.3h24.6v42.2c0,11.3 9.1,20.4 20.4,20.4s20.4-9.1 20.4-20.4v-116.4c0-11.3-9.1-20.4-20.4-20.4s-20.4,9.1-20.4,20.4v33.3h-14.8c-28.9-37.6-44.8-84.5-44.8-132.9 0-117.3 91.6-212.8 204.2-212.8 112.6,0 204.2,95.5 204.2,212.8 0,48.4-15.8,95.2-44.8,132.9h-14.8v-33.3c0-11.3-9.1-20.4-20.4-20.4-11.3,0-20.4,9.1-20.4,20.4v116.4c0,11.3 9.1,20.4 20.4,20.4 11.3,0 20.4-9.1 20.4-20.4v-42.2h24.6c6,0 11.7-2.7 15.6-7.3 38.8-46.2 60.2-105.3 60.2-166.5 0-139.8-109.9-253.6-245-253.6z"/>
  </g>
</svg>