<?xml version='1.0' encoding='utf-8'?>
<!DOCTYPE svg PUBLIC '-//W3C//DTD SVG 1.1//EN' 'http://www.w3.org/Graphics/SVG/1.1/DTD/svg11.dtd'>
<!-- Uploaded to: SVG Repo, www.svgrepo.com, Generator: SVG Repo Mixer Tools -->
<svg fill="#000000" height="800px" width="800px" version="1.1" xmlns="http://www.w3.org/2000/svg" viewBox="0 0 512 512" xmlns:xlink="http://www.w3.org/1999/xlink" enable-background="new 0 0 512 512">
  <g>
    <g>
      <path d="m472.3,292l-68.2,30.1c-7.4,3.3-12.2,10.6-12.2,18.7v11.7c-13.4-7.3-22.5-21.5-22.5-37.9v-111.5c0-44.6-34.8-81.1-78.6-83.8v-87.9c0-11.3-9.1-20.4-20.4-20.4h-239c-11.3,0-20.4,9.1-20.4,20.4v449.2c0,11.3 9.1,20.4 20.4,20.4h239c11.3,0 20.4-9.1 20.4-20.4v-320.3c21.2,2.6 37.8,20.8 37.8,42.8v111.5c0,39.2 27,72.2 63.3,81.4v19.5c0,8.1 4.8,15.4 12.2,18.7l68.2,30.1c18.8,6.3 28.7-8.1 28.7-18.7v-134.9c0.8-8.2-9-25.4-28.7-18.7zm-222.3,168.2h-198.2v-408.4h198.2v408.4zm210.2-46l-27.4-12.1v-48.1l27.4-12.1v72.3z"/>
      <path d="m150.9,421.1c37,0 67.1-30.2 67.1-67.3 0-37.1-30.1-67.2-67.1-67.2-37,0-67.1,30.2-67.1,67.2-1.42109e-14,37.2 30.1,67.3 67.1,67.3zm0-93.6c14.5,0 26.3,11.8 26.3,26.4s-11.8,26.4-26.3,26.4c-14.5,0-26.3-11.9-26.3-26.4s11.8-26.4 26.3-26.4z"/>
      <circle cx="151.2" cy="164" r="21.4"/>
    </g>
  </g>
</svg>