<?xml version='1.0' encoding='utf-8'?>
<!DOCTYPE svg PUBLIC '-//W3C//DTD SVG 1.1//EN' 'http://www.w3.org/Graphics/SVG/1.1/DTD/svg11.dtd'>
<!-- Uploaded to: SVG Repo, www.svgrepo.com, Generator: SVG Repo Mixer Tools -->
<svg fill="#000000" height="800px" width="800px" version="1.1" xmlns="http://www.w3.org/2000/svg" viewBox="0 0 512 512" xmlns:xlink="http://www.w3.org/1999/xlink" enable-background="new 0 0 512 512">
  <g>
    <path d="m411.6,11c-14.4,0-230.8,137.3-230.8,137.3h-64.9c-76.3,2.6-104.9,64.4-104.9,107.5 0,12.2 5.4,103.1 104.9,107.5h64.4c0,0 215.5,137.7 231.3,137.7 61.4,0 89.4-127 89.4-245s-28-245-89.4-245zm-359.8,244.8c-1.42109e-14-39 28.7-66.7 64.1-66.7h50v133.4h-50c-65.5-2.6-64.1-66.7-64.1-66.7zm154.9-75.5l135.4-85.1c-13.4,45.7-19.9,104.3-19.9,160.9 0,56.6 6.4,115.2 19.9,160.9l-135.4-85.1v-151.6zm204.9,279.9c-1.9,0-41-22.4-48.3-183.8 0.2,0 0.3,0 0.5,0h22.2c11.3,0 20.4-9.1 20.4-20.4 0-11.3-9.1-20.4-20.4-20.4h-22.2c-0.2,0-0.3,0-0.5,0 7.8-166.5 47.5-183.7 47.5-183.7 0.3,0 0.5-0.1 0.8-0.1 14.1,0 48.5,71.5 48.5,204.2 0.1,132.6-34.4,204.2-48.5,204.2z"/>
  </g>
</svg>